{
  "accessors": [
    {
      "bufferView": 2,
      "componentType": 5126,
      "count": 18896,
      "max": [
        91.73361206054688,
        34.94940185546875,
        71.42060852050781
      ],
      "min": [
        -36.69900131225586,
        -34.94940948486328,
        20.88279914855957
      ],
      "type": "VEC3"
    },
    {
      "bufferView": 2,
      "byteOffset": 226752,
      "componentType": 5126,
      "count": 18896,
      "max": [
        1.0,
        0.9999822974205017,
        1.0
      ],
      "min": [
        -1.0,
        -0.999994695186615,
        -1.0
      ],
      "type": "VEC3"
    },
    {
      "bufferView": 1,
      "componentType": 5126,
      "count": 18896,
      "max": [
        0.9820302128791809,
        0.9994999766349792
      ],
      "min": [
        0.0005000000237487257,
        0.0005000000237487257
      ],
      "type": "VEC2"
    },
    {
      "bufferView": 1,
      "byteOffset": 151168,
      "componentType": 5126,
      "count": 18896,
      "max": [
        7.995999813079834,
        7.887622833251953
      ],
      "min": [
        0.004000000189989805,
        0.004000000189989805
      ],
      "type": "VEC2"
    },
    {
      "bufferView": 0,
      "componentType": 5125,
      "count": 103914,
      "type": "SCALAR"
    },
    {
      "bufferView": 2,
      "byteOffset": 453504,
      "componentType": 5126,
      "count": 1852,
      "max": [
        83.5425033569336,
        26.006000518798828,
        3.743799924850464
      ],
      "min": [
        -28.534500122070313,
        -33.2123908996582,
        -0.31170010566711426
      ],
      "type": "VEC3"
    },
    {
      "bufferView": 2,
      "byteOffset": 475728,
      "componentType": 5126,
      "count": 1852,
      "max": [
        0.9999386072158813,
        0.9847810864448547,
        0.9994866251945496
      ],
      "min": [
        -0.9999384880065918,
        -0.9829181432723999,
        -1.0
      ],
      "type": "VEC3"
    },
    {
      "bufferView": 1,
      "byteOffset": 302336,
      "componentType": 5126,
      "count": 1852,
      "max": [
        0.9905651807785034,
        0.5441727042198181
      ],
      "min": [
        0.012511810287833214,
        0.004503940232098103
      ],
      "type": "VEC2"
    },
    {
      "bufferView": 1,
      "byteOffset": 317152,
      "componentType": 5126,
      "count": 1852,
      "max": [
        0.7492566108703613,
        0.8226022124290466
      ],
      "min": [
        0.049623239785432816,
        0.1192144975066185
      ],
      "type": "VEC2"
    },
    {
      "bufferView": 0,
      "byteOffset": 415656,
      "componentType": 5125,
      "count": 4968,
      "type": "SCALAR"
    },
    {
      "bufferView": 2,
      "byteOffset": 497952,
      "componentType": 5126,
      "count": 552,
      "max": [
        83.46888732910156,
        25.84760093688965,
        21.40719985961914
      ],
      "min": [
        -28.460899353027344,
        -33.005699157714844,
        3.240839958190918
      ],
      "type": "VEC3"
    },
    {
      "bufferView": 2,
      "byteOffset": 504576,
      "componentType": 5126,
      "count": 552,
      "max": [
        0.9999868273735046,
        0.9833818078041077,
        1.0
      ],
      "min": [
        -0.9999868273735046,
        -0.9815533757209778,
        -0.9995565414428711
      ],
      "type": "VEC3"
    },
    {
      "bufferView": 1,
      "byteOffset": 331968,
      "componentType": 5126,
      "count": 552,
      "max": [
        0.9905651807785034,
        0.9923157095909119
      ],
      "min": [
        0.031983908265829086,
        0.01651575043797493
      ],
      "type": "VEC2"
    },
    {
      "bufferView": 1,
      "byteOffset": 336384,
      "componentType": 5126,
      "count": 552,
      "max": [
        0.7635629773139954,
        0.8541551828384399
      ],
      "min": [
        0.2256481945514679,
        0.020968010649085045
      ],
      "type": "VEC2"
    },
    {
      "bufferView": 0,
      "byteOffset": 435528,
      "componentType": 5125,
      "count": 1488,
      "type": "SCALAR"
    },
    {
      "bufferView": 2,
      "byteOffset": 511200,
      "componentType": 5126,
      "count": 4,
      "max": [
        167.02890014648438,
        167.02890014648438,
        0.0
      ],
      "min": [
        -167.02890014648438,
        -167.02890014648438,
        0.0
      ],
      "type": "VEC3"
    },
    {
      "bufferView": 2,
      "byteOffset": 511248,
      "componentType": 5126,
      "count": 4,
      "max": [
        0.0,
        0.0,
        1.0
      ],
      "min": [
        0.0,
        0.0,
        1.0
      ],
      "type": "VEC3"
    },
    {
      "bufferView": 1,
      "byteOffset": 340800,
      "componentType": 5126,
      "count": 4,
      "max": [
        1.0,
        1.0
      ],
      "min": [
        2.98022992950564e-08,
        2.98022992950564e-08
      ],
      "type": "VEC2"
    },
    {
      "bufferView": 0,
      "byteOffset": 441480,
      "componentType": 5125,
      "count": 6,
      "type": "SCALAR"
    }
  ],
  "asset": {
    "extras": {
      "author": "MADE.COM (https://sketchfab.com/made-it)",
      "license": "CC-BY-NC-4.0 (http://creativecommons.org/licenses/by-nc/4.0/)",
      "source": "https://sketchfab.com/3d-models/margot-2-seater-sofa-antique-gold-velvet-5f98a39af5d341dba4179d93b7ebc9fd",
      "title": "Margot 2 Seater Sofa, Antique Gold Velvet"
    },
    "generator": "Sketchfab-12.68.0",
    "version": "2.0"
  },
  "bufferViews": [
    {
      "buffer": 0,
      "byteLength": 441504,
      "name": "floatBufferViews",
      "target": 34963
    },
    {
      "buffer": 0,
      "byteLength": 340832,
      "byteOffset": 441504,
      "byteStride": 8,
      "name": "floatBufferViews",
      "target": 34962
    },
    {
      "buffer": 0,
      "byteLength": 511296,
      "byteOffset": 782336,
      "byteStride": 12,
      "name": "floatBufferViews",
      "target": 34962
    }
  ],
  "buffers": [
    {
      "byteLength": 1293632,
      "uri": "scene.bin"
    }
  ],
  "images": [
    {
      "uri": "textures/FLOOR_baseColor.png"
    },
    {
      "uri": "textures/Velvet_baseColor.jpeg"
    }
  ],
  "materials": [
    {
      "alphaMode": "BLEND",
      "doubleSided": true,
      "name": "FLOOR",
      "pbrMetallicRoughness": {
        "baseColorFactor": [
          0.0,
          0.0,
          0.0,
          1.0
        ],
        "baseColorTexture": {
          "index": 0
        },
        "metallicFactor": 0.0
      }
    },
    {
      "doubleSided": true,
      "name": "Velvet",
      "pbrMetallicRoughness": {
        "baseColorTexture": {
          "index": 1
        },
        "metallicFactor": 0.6370021412207646
      }
    },
    {
      "doubleSided": true,
      "name": "EnvironmentAmbientLight",
      "pbrMetallicRoughness": {
        "baseColorFactor": [
          1.0,
          0.6312340743,
          0.3002697829,
          1.0
        ],
        "roughnessFactor": 0.0
      }
    },
    {
      "doubleSided": true,
      "name": "Wood",
      "pbrMetallicRoughness": {
        "baseColorTexture": {
          "index": 1
        },
        "metallicFactor": 0.0,
        "roughnessFactor": 0.7906708147540782
      }
    }
  ],
  "meshes": [
    {
      "name": "_Velvet",
      "primitives": [
        {
          "attributes": {
            "NORMAL": 1,
            "POSITION": 0,
            "TEXCOORD_0": 2,
            "TEXCOORD_1": 3
          },
          "indices": 4,
          "material": 1,
          "mode": 4
        }
      ]
    },
    {
      "name": "Gold",
      "primitives": [
        {
          "attributes": {
            "NORMAL": 6,
            "POSITION": 5,
            "TEXCOORD_0": 7,
            "TEXCOORD_1": 8
          },
          "indices": 9,
          "material": 2,
          "mode": 4
        }
      ]
    },
    {
      "name": "Wood",
      "primitives": [
        {
          "attributes": {
            "NORMAL": 11,
            "POSITION": 10,
            "TEXCOORD_0": 12,
            "TEXCOORD_1": 13
          },
          "indices": 14,
          "material": 3,
          "mode": 4
        }
      ]
    },
    {
      "name": "FLOOR",
      "primitives": [
        {
          "attributes": {
            "NORMAL": 16,
            "POSITION": 15,
            "TEXCOORD_0": 17
          },
          "indices": 18,
          "material": 0,
          "mode": 4
        }
      ]
    }
  ],
  "nodes": [
    {
      "children": [
        1
      ],
      "matrix": [
        1.0,
        0.0,
        0.0,
        0.0,
        0.0,
        2.220446049250313e-16,
        -1.0,
        0.0,
        0.0,
        1.0,
        2.220446049250313e-16,
        0.0,
        0.0,
        0.0,
        0.0,
        1.0
      ],
      "name": "Sketchfab_model"
    },
    {
      "children": [
        2,
        7,
        9
      ],
      "name": "Collada visual scene group"
    },
    {
      "children": [
        3
      ],
      "matrix": [
        1.0,
        0.0,
        0.0,
        0.0,
        0.0,
        1.0,
        0.0,
        0.0,
        0.0,
        0.0,
        1.0,
        0.0,
        0.0,
        -3.8147e-06,
        0.4165626,
        1.0
      ],
      "name": "Margot_2_Seater_Sofa"
    },
    {
      "children": [
        4,
        5,
        6
      ],
      "matrix": [
        1.0,
        0.0,
        0.0,
        0.0,
        0.0,
        1.0,
        0.0,
        0.0,
        0.0,
        0.0,
        1.0,
        0.0,
        -27.51731,
        3.8147e-06,
        0.0,
        1.0
      ],
      "name": "Object_3"
    },
    {
      "mesh": 0,
      "name": "_Velvet"
    },
    {
      "mesh": 1,
      "name": "Gold"
    },
    {
      "mesh": 2,
      "name": "Wood"
    },
    {
      "children": [
        8
      ],
      "name": "Plane001"
    },
    {
      "mesh": 3,
      "name": "FLOOR"
    },
    {
      "children": [
        10
      ],
      "name": "EnvironmentAmbientLight"
    },
    {
      "name": "EnvironmentAmbientLight"
    }
  ],
  "samplers": [
    {
      "magFilter": 9729,
      "minFilter": 9987,
      "wrapS": 10497,
      "wrapT": 10497
    }
  ],
  "scene": 0,
  "scenes": [
    {
      "name": "Sketchfab_Scene",
      "nodes": [
        0
      ]
    }
  ],
  "textures": [
    {
      "sampler": 0,
      "source": 0
    },
    {
      "sampler": 0,
      "source": 1
    }
  ]
}
